<mxfile host="drawio-plugin" modified="2023-06-16T14:06:24.322Z" agent="5.0 (Windows NT 6.2; Win64; x64) AppleWebKit/537.36 (KHTML, like Gecko) Chrome/104.0.5112.102 Safari/537.36" etag="0I-oRXbQR59R4oXTH586" version="20.5.3" type="embed"><diagram id="Cefqmx0Oj_4-pc0AHTQd" name="ShowRegistrationScreen"><mxGraphModel dx="518" dy="405" grid="1" gridSize="10" guides="1" tooltips="1" connect="1" arrows="1" fold="1" page="1" pageScale="1" pageWidth="850" pageHeight="1100" background="#FFFFFF" math="0" shadow="1"><root><mxCell id="0"/><mxCell id="1" parent="0"/><mxCell id="158" value="" style="rounded=1;whiteSpace=wrap;html=1;fillColor=none;dashed=1;strokeColor=#000000;" parent="1" vertex="1"><mxGeometry x="67.5" y="50" width="522.5" height="400" as="geometry"/></mxCell><mxCell id="130" value="" style="rounded=1;whiteSpace=wrap;html=1;fillColor=none;dashed=1;strokeColor=#005700;fontColor=#ffffff;strokeWidth=2;" parent="1" vertex="1"><mxGeometry x="67.5" y="50" width="522.5" height="400" as="geometry"/></mxCell><mxCell id="131" value="" style="rounded=1;whiteSpace=wrap;html=1;fillColor=none;dashed=1;strokeColor=#001DBC;fontColor=#ffffff;strokeWidth=2;" parent="1" vertex="1"><mxGeometry x="71.25" y="600" width="522.5" height="280" as="geometry"/></mxCell><mxCell id="139" value="" style="rounded=1;whiteSpace=wrap;html=1;fillColor=none;dashed=1;fontColor=#ffffff;strokeColor=#F50000;strokeWidth=2;" parent="1" vertex="1"><mxGeometry x="40" y="355" width="580" height="335" as="geometry"/></mxCell><mxCell id="118" value="LobbyView" style="rounded=1;whiteSpace=wrap;html=1;" parent="1" vertex="1"><mxGeometry x="90" y="90" width="120" height="60" as="geometry"/></mxCell><mxCell id="119" value="GameView" style="rounded=1;whiteSpace=wrap;html=1;" parent="1" vertex="1"><mxGeometry x="450" y="90" width="120" height="60" as="geometry"/></mxCell><mxCell id="189" value="" style="edgeStyle=orthogonalEdgeStyle;rounded=0;orthogonalLoop=1;jettySize=auto;html=1;labelBackgroundColor=#000000;strokeColor=#000000;fontColor=#000000;" parent="1" source="120" target="118" edge="1"><mxGeometry relative="1" as="geometry"/></mxCell><mxCell id="120" value="LobbyPresenter" style="rounded=1;whiteSpace=wrap;html=1;" parent="1" vertex="1"><mxGeometry x="90" y="200" width="120" height="60" as="geometry"/></mxCell><mxCell id="190" value="" style="edgeStyle=orthogonalEdgeStyle;rounded=0;orthogonalLoop=1;jettySize=auto;html=1;labelBackgroundColor=#000000;strokeColor=#000000;fontColor=#000000;" parent="1" source="121" target="119" edge="1"><mxGeometry relative="1" as="geometry"/></mxCell><mxCell id="121" value="GamePresenter" style="rounded=1;whiteSpace=wrap;html=1;" parent="1" vertex="1"><mxGeometry x="450" y="200" width="120" height="60" as="geometry"/></mxCell><mxCell id="186" style="edgeStyle=orthogonalEdgeStyle;rounded=0;orthogonalLoop=1;jettySize=auto;html=1;entryX=1;entryY=0.5;entryDx=0;entryDy=0;labelBackgroundColor=#000000;strokeColor=#000000;fontColor=#000000;" parent="1" source="122" target="120" edge="1"><mxGeometry relative="1" as="geometry"><Array as="points"><mxPoint x="290" y="230"/></Array></mxGeometry></mxCell><mxCell id="187" style="edgeStyle=orthogonalEdgeStyle;rounded=0;orthogonalLoop=1;jettySize=auto;html=1;entryX=0;entryY=0.5;entryDx=0;entryDy=0;labelBackgroundColor=#000000;strokeColor=#000000;fontColor=#000000;" parent="1" source="122" target="121" edge="1"><mxGeometry relative="1" as="geometry"><Array as="points"><mxPoint x="380" y="230"/></Array></mxGeometry></mxCell><mxCell id="122" value="LobbyGameManagement" style="rounded=1;whiteSpace=wrap;html=1;" parent="1" vertex="1"><mxGeometry x="250" y="280" width="165" height="60" as="geometry"/></mxCell><mxCell id="184" style="edgeStyle=orthogonalEdgeStyle;rounded=0;orthogonalLoop=1;jettySize=auto;html=1;entryX=0;entryY=0.5;entryDx=0;entryDy=0;labelBackgroundColor=#000000;strokeColor=#000000;fontColor=#000000;" parent="1" source="123" target="122" edge="1"><mxGeometry relative="1" as="geometry"><Array as="points"><mxPoint x="160" y="310"/></Array></mxGeometry></mxCell><mxCell id="123" value="LobbyService" style="rounded=1;whiteSpace=wrap;html=1;" parent="1" vertex="1"><mxGeometry x="90" y="370" width="120" height="60" as="geometry"/></mxCell><mxCell id="185" style="edgeStyle=orthogonalEdgeStyle;rounded=0;orthogonalLoop=1;jettySize=auto;html=1;entryX=1;entryY=0.5;entryDx=0;entryDy=0;labelBackgroundColor=#000000;strokeColor=#000000;fontColor=#000000;" parent="1" source="124" target="122" edge="1"><mxGeometry relative="1" as="geometry"><Array as="points"><mxPoint x="510" y="310"/></Array></mxGeometry></mxCell><mxCell id="124" value="GameService" style="rounded=1;whiteSpace=wrap;html=1;" parent="1" vertex="1"><mxGeometry x="450" y="370" width="120" height="60" as="geometry"/></mxCell><mxCell id="141" value="" style="edgeStyle=orthogonalEdgeStyle;rounded=0;orthogonalLoop=1;jettySize=auto;html=1;fontSize=16;fontColor=#F50000;strokeColor=#000000;" parent="1" source="125" target="128" edge="1"><mxGeometry relative="1" as="geometry"/></mxCell><mxCell id="125" value="LobbyService" style="rounded=1;whiteSpace=wrap;html=1;" parent="1" vertex="1"><mxGeometry x="92.5" y="610" width="120" height="60" as="geometry"/></mxCell><mxCell id="142" value="" style="edgeStyle=orthogonalEdgeStyle;rounded=0;orthogonalLoop=1;jettySize=auto;html=1;fontSize=16;fontColor=#F50000;strokeColor=#000000;" parent="1" source="126" target="127" edge="1"><mxGeometry relative="1" as="geometry"/></mxCell><mxCell id="126" value="GameService" style="rounded=1;whiteSpace=wrap;html=1;" parent="1" vertex="1"><mxGeometry x="450" y="610" width="120" height="60" as="geometry"/></mxCell><mxCell id="155" value="" style="edgeStyle=orthogonalEdgeStyle;rounded=0;orthogonalLoop=1;jettySize=auto;html=1;fontSize=16;fontColor=#F50000;" parent="1" source="127" target="136" edge="1"><mxGeometry relative="1" as="geometry"/></mxCell><mxCell id="127" value="GameManagement" style="rounded=1;whiteSpace=wrap;html=1;" parent="1" vertex="1"><mxGeometry x="450" y="720" width="120" height="60" as="geometry"/></mxCell><mxCell id="154" style="edgeStyle=orthogonalEdgeStyle;rounded=0;orthogonalLoop=1;jettySize=auto;html=1;fontSize=16;fontColor=#F50000;" parent="1" source="128" target="134" edge="1"><mxGeometry relative="1" as="geometry"/></mxCell><mxCell id="128" value="LobbyManagement" style="rounded=1;whiteSpace=wrap;html=1;" parent="1" vertex="1"><mxGeometry x="92.5" y="720" width="120" height="60" as="geometry"/></mxCell><mxCell id="143" style="edgeStyle=orthogonalEdgeStyle;rounded=0;orthogonalLoop=1;jettySize=auto;html=1;fontSize=16;fontColor=#000000;strokeColor=#000000;exitX=0.25;exitY=1;exitDx=0;exitDy=0;startArrow=classic;startFill=1;" parent="1" source="129" target="125" edge="1"><mxGeometry relative="1" as="geometry"><Array as="points"><mxPoint x="287" y="630"/></Array></mxGeometry></mxCell><mxCell id="129" value="Netzwerkkommunikation&lt;br&gt;(Netty)" style="rounded=1;whiteSpace=wrap;html=1;" parent="1" vertex="1"><mxGeometry x="246.25" y="490" width="165" height="60" as="geometry"/></mxCell><mxCell id="181" style="edgeStyle=orthogonalEdgeStyle;rounded=0;orthogonalLoop=1;jettySize=auto;html=1;exitX=0.5;exitY=0;exitDx=0;exitDy=0;labelBackgroundColor=#000000;strokeColor=#F0F0F0;fontColor=#000000;" parent="1" source="134" target="180" edge="1"><mxGeometry relative="1" as="geometry"/></mxCell><mxCell id="134" value="&lt;font color=&quot;#000000&quot;&gt;...&lt;/font&gt;" style="text;html=1;strokeColor=none;fillColor=none;align=center;verticalAlign=middle;whiteSpace=wrap;rounded=0;dashed=1;" parent="1" vertex="1"><mxGeometry x="122.5" y="820" width="60" height="30" as="geometry"/></mxCell><mxCell id="136" value="&lt;font color=&quot;#000000&quot;&gt;...&lt;/font&gt;" style="text;html=1;strokeColor=none;fillColor=none;align=center;verticalAlign=middle;whiteSpace=wrap;rounded=0;dashed=1;" parent="1" vertex="1"><mxGeometry x="480" y="810" width="60" height="30" as="geometry"/></mxCell><mxCell id="137" value="&lt;font style=&quot;font-size: 16px;&quot;&gt;Server&lt;/font&gt;" style="text;html=1;align=center;verticalAlign=middle;whiteSpace=wrap;rounded=0;dashed=1;fontColor=#ffffff;fillColor=#0050ef;strokeColor=#001DBC;" parent="1" vertex="1"><mxGeometry x="105" y="570" width="90" height="30" as="geometry"/></mxCell><mxCell id="138" value="&lt;font style=&quot;font-size: 16px;&quot;&gt;Client&lt;/font&gt;" style="text;html=1;strokeColor=#005700;fillColor=#008a00;align=center;verticalAlign=middle;whiteSpace=wrap;rounded=0;dashed=1;fontColor=#ffffff;" parent="1" vertex="1"><mxGeometry x="122.5" y="20" width="90" height="30" as="geometry"/></mxCell><mxCell id="140" value="&lt;font color=&quot;#f50000&quot;&gt;Netzwerk&lt;/font&gt;" style="text;html=1;strokeColor=none;fillColor=none;align=center;verticalAlign=middle;whiteSpace=wrap;rounded=0;dashed=1;fontSize=16;" parent="1" vertex="1"><mxGeometry x="80" y="325" width="60" height="30" as="geometry"/></mxCell><mxCell id="164" style="edgeStyle=orthogonalEdgeStyle;rounded=0;orthogonalLoop=1;jettySize=auto;html=1;entryX=0.75;entryY=0;entryDx=0;entryDy=0;fontSize=16;fontColor=#000000;strokeColor=#000000;startArrow=classic;startFill=1;" parent="1" edge="1" target="129"><mxGeometry relative="1" as="geometry"><mxPoint x="450" y="400" as="sourcePoint"/><mxPoint x="328.75" y="490" as="targetPoint"/></mxGeometry></mxCell><mxCell id="165" style="edgeStyle=orthogonalEdgeStyle;rounded=0;orthogonalLoop=1;jettySize=auto;html=1;entryX=0.25;entryY=0;entryDx=0;entryDy=0;fontColor=#000000;strokeColor=#000000;startArrow=classic;startFill=1;" parent="1" edge="1" target="129"><mxGeometry relative="1" as="geometry"><mxPoint x="210" y="400" as="sourcePoint"/><mxPoint x="328.75" y="490" as="targetPoint"/></mxGeometry></mxCell><mxCell id="170" style="edgeStyle=orthogonalEdgeStyle;rounded=0;orthogonalLoop=1;jettySize=auto;html=1;fontSize=16;fontColor=#000000;strokeColor=#000000;exitX=0.75;exitY=1;exitDx=0;exitDy=0;startArrow=classic;startFill=1;" parent="1" edge="1" source="129"><mxGeometry relative="1" as="geometry"><mxPoint x="450" y="630" as="targetPoint"/><Array as="points"><mxPoint x="370" y="630"/></Array><mxPoint x="328.79999999999995" y="550" as="sourcePoint"/></mxGeometry></mxCell><mxCell id="180" value="..." style="text;html=1;strokeColor=none;fillColor=none;align=center;verticalAlign=middle;whiteSpace=wrap;rounded=0;dashed=1;fontColor=#000000;" parent="1" vertex="1"><mxGeometry x="123" y="795" width="60" height="30" as="geometry"/></mxCell><mxCell id="182" style="edgeStyle=orthogonalEdgeStyle;rounded=0;orthogonalLoop=1;jettySize=auto;html=1;fontSize=16;fontColor=#F50000;strokeColor=#000000;" parent="1" edge="1"><mxGeometry relative="1" as="geometry"><mxPoint x="153.25" y="780" as="sourcePoint"/><mxPoint x="153.25" y="820" as="targetPoint"/></mxGeometry></mxCell><mxCell id="183" value="" style="edgeStyle=orthogonalEdgeStyle;rounded=0;orthogonalLoop=1;jettySize=auto;html=1;fontSize=16;fontColor=#F50000;strokeColor=#000000;" parent="1" edge="1"><mxGeometry relative="1" as="geometry"><mxPoint x="510.75" y="780" as="sourcePoint"/><mxPoint x="510.75" y="810" as="targetPoint"/></mxGeometry></mxCell></root></mxGraphModel></diagram></mxfile>